G75*
G70*
%OFA0B0*%
%FSLAX24Y24*%
%IPPOS*%
%LPD*%
%AMOC8*
5,1,8,0,0,1.08239X$1,22.5*
%
%ADD10C,0.0000*%
%ADD11OC8,0.0660*%
%ADD12C,0.0660*%
%ADD13C,0.0520*%
%ADD14OC8,0.0560*%
%ADD15C,0.0560*%
%ADD16C,0.0440*%
%ADD17C,0.1300*%
%ADD18OC8,0.0600*%
%ADD19C,0.0600*%
%ADD20R,0.0630X0.0460*%
%ADD21C,0.0240*%
%ADD22C,0.0160*%
%ADD23R,0.0356X0.0356*%
D10*
X001774Y000181D02*
X001774Y014748D01*
X021459Y014748D01*
X021459Y000181D01*
X001774Y000181D01*
D11*
X007774Y003431D03*
X011774Y003431D03*
X012774Y003431D03*
X012774Y004931D03*
X016774Y004931D03*
X016774Y003431D03*
X005774Y011181D03*
X004774Y011181D03*
X005774Y012181D03*
X004774Y007181D03*
D12*
X008774Y004931D03*
X009774Y004931D03*
X010774Y004931D03*
X005854Y004174D03*
X005074Y004174D03*
X005074Y003189D03*
X005854Y003189D03*
D13*
X007514Y001931D02*
X008034Y001931D01*
X011514Y001931D02*
X012034Y001931D01*
X013014Y001931D02*
X013534Y001931D01*
X017014Y001931D02*
X017534Y001931D01*
X015274Y006671D02*
X015274Y007191D01*
X014274Y007191D02*
X014274Y006671D01*
X013274Y006671D02*
X013274Y007191D01*
X012274Y007191D02*
X012274Y006671D01*
X011274Y006671D02*
X011274Y007191D01*
X010274Y007191D02*
X010274Y006671D01*
X009274Y006671D02*
X009274Y007191D01*
X008274Y007191D02*
X008274Y006671D01*
X007274Y006671D02*
X007274Y007191D01*
X006274Y007191D02*
X006274Y006671D01*
X006274Y009671D02*
X006274Y010191D01*
X007274Y010191D02*
X007274Y009671D01*
X008274Y009671D02*
X008274Y010191D01*
X009274Y010191D02*
X009274Y009671D01*
X010274Y009671D02*
X010274Y010191D01*
X011274Y010191D02*
X011274Y009671D01*
X012274Y009671D02*
X012274Y010191D01*
X013274Y010191D02*
X013274Y009671D01*
X014274Y009671D02*
X014274Y010191D01*
X015274Y010191D02*
X015274Y009671D01*
D14*
X002624Y009681D03*
D15*
X003424Y009681D03*
D16*
X020024Y011181D03*
X020024Y012181D03*
X020024Y013181D03*
D17*
X004004Y006051D03*
X004004Y001311D03*
D18*
X019524Y003681D03*
X020524Y003681D03*
X020524Y004681D03*
X019524Y004681D03*
X019524Y005681D03*
X020524Y005681D03*
X020524Y006681D03*
X019524Y006681D03*
X019524Y007681D03*
X020524Y007681D03*
X020524Y008681D03*
X019524Y008681D03*
X019524Y009681D03*
X020524Y009681D03*
D19*
X018274Y013131D02*
X018274Y013731D01*
X017274Y013731D02*
X017274Y013131D01*
X016274Y013131D02*
X016274Y013731D01*
X015274Y013731D02*
X015274Y013131D01*
X014274Y013131D02*
X014274Y013731D01*
X013274Y013731D02*
X013274Y013131D01*
X012274Y013131D02*
X012274Y013731D01*
X011274Y013731D02*
X011274Y013131D01*
X010274Y013131D02*
X010274Y013731D01*
X009274Y013731D02*
X009274Y013131D01*
X008274Y013131D02*
X008274Y013731D01*
X007274Y013731D02*
X007274Y013131D01*
X006274Y013131D02*
X006274Y013731D01*
X005274Y013731D02*
X005274Y013131D01*
X004274Y013131D02*
X004274Y013731D01*
X003274Y013731D02*
X003274Y013131D01*
D20*
X019774Y002731D03*
X020524Y002731D03*
X020524Y002131D03*
X019774Y002131D03*
D21*
X019774Y001431D01*
X019524Y001431D01*
X020524Y002131D02*
X020574Y002181D01*
X021224Y002181D01*
X021224Y012481D01*
X020149Y013556D01*
X020149Y013306D01*
X020024Y013181D01*
X020149Y013556D02*
X019274Y014431D01*
X017274Y014431D01*
X017274Y013431D01*
X017274Y014431D02*
X004524Y014431D01*
X004274Y014181D01*
X004274Y013431D01*
X005274Y013431D02*
X006524Y012181D01*
X008274Y010431D01*
X008274Y009931D01*
X009274Y009931D02*
X009274Y010431D01*
X008024Y011681D01*
X006274Y013431D01*
X007274Y013431D02*
X009524Y011181D01*
X010274Y010431D01*
X010274Y009931D01*
X011274Y009931D02*
X011274Y010431D01*
X011024Y010681D01*
X008274Y013431D01*
X005774Y011181D02*
X005774Y009581D01*
X005924Y009581D01*
X006274Y009931D01*
X005774Y009581D02*
X004774Y009581D01*
X004774Y011181D01*
X004774Y009581D02*
X003274Y009581D01*
X003424Y009681D01*
X002974Y009231D01*
X002974Y003731D01*
X004524Y002181D01*
X005324Y002181D01*
X005854Y002711D01*
X005854Y003189D01*
X005854Y004174D02*
X007574Y002454D01*
X007574Y002431D01*
X016774Y002431D01*
X017274Y001931D01*
X016774Y002431D02*
X016774Y003431D01*
X016774Y004931D01*
X013774Y004431D02*
X013774Y006431D01*
X013274Y006931D01*
X012274Y006931D02*
X012274Y005431D01*
X012774Y004931D01*
X013774Y004431D02*
X012774Y003431D01*
X011774Y003431D02*
X011774Y006431D01*
X011274Y006931D01*
X010274Y006931D02*
X010274Y005431D01*
X010774Y004931D01*
X009274Y005431D02*
X009274Y006931D01*
X009274Y005431D02*
X008774Y004931D01*
X007774Y003681D02*
X007774Y003431D01*
X007774Y003681D02*
X006524Y004931D01*
X005524Y004931D01*
X005074Y004481D01*
X005074Y004174D01*
X005024Y006931D02*
X006274Y006931D01*
X005024Y006931D02*
X004774Y007181D01*
X012274Y009931D02*
X012274Y012431D01*
X013274Y013431D01*
X013274Y012431D02*
X014274Y013431D01*
X014274Y012431D02*
X015274Y013431D01*
X014274Y012431D02*
X014274Y009931D01*
X013274Y009931D02*
X013274Y012431D01*
X020524Y003681D02*
X020524Y002731D01*
D22*
X020224Y003141D02*
X020134Y003141D01*
X020130Y003137D01*
X020113Y003141D01*
X019809Y003141D01*
X019809Y002767D01*
X019739Y002767D01*
X019739Y003141D01*
X019435Y003141D01*
X019389Y003129D01*
X019348Y003105D01*
X019315Y003072D01*
X019291Y003031D01*
X019279Y002985D01*
X019279Y002766D01*
X019739Y002766D01*
X019739Y002696D01*
X019279Y002696D01*
X019279Y002478D01*
X019288Y002445D01*
X019279Y002436D01*
X019279Y001827D01*
X019316Y001789D01*
X019271Y001789D01*
X019166Y001684D01*
X019166Y001179D01*
X019271Y001073D01*
X019776Y001073D01*
X019835Y001132D01*
X019944Y001177D01*
X020028Y001261D01*
X020074Y001372D01*
X020074Y001721D01*
X020134Y001721D01*
X020913Y001721D01*
X021019Y001827D01*
X021019Y001881D01*
X021164Y001881D01*
X021279Y001881D01*
X021279Y000361D01*
X001954Y000361D01*
X001954Y014568D01*
X004237Y014568D01*
X004104Y014436D01*
X004020Y014351D01*
X003974Y014241D01*
X003974Y014110D01*
X003867Y014003D01*
X003794Y013827D01*
X003794Y013036D01*
X003867Y012859D01*
X004002Y012724D01*
X004178Y012651D01*
X004369Y012651D01*
X004546Y012724D01*
X004681Y012859D01*
X004754Y013036D01*
X004754Y013827D01*
X004681Y014003D01*
X004600Y014084D01*
X004648Y014131D01*
X004995Y014131D01*
X004867Y014003D01*
X004794Y013827D01*
X004794Y013036D01*
X004867Y012859D01*
X005002Y012724D01*
X005178Y012651D01*
X005369Y012651D01*
X005546Y012724D01*
X005551Y012730D01*
X005590Y012691D01*
X005563Y012691D01*
X005264Y012393D01*
X005264Y012182D01*
X005773Y012182D01*
X005773Y012181D01*
X005264Y012181D01*
X005264Y011970D01*
X005553Y011681D01*
X005274Y011403D01*
X004985Y011691D01*
X004563Y011691D01*
X004264Y011393D01*
X004264Y010970D01*
X004474Y010760D01*
X004474Y009881D01*
X003839Y009881D01*
X003814Y009942D01*
X003684Y010071D01*
X003515Y010141D01*
X003332Y010141D01*
X003163Y010071D01*
X003034Y009942D01*
X003028Y009928D01*
X002814Y010141D01*
X002624Y010141D01*
X002624Y009682D01*
X002624Y009682D01*
X002624Y010141D01*
X002433Y010141D01*
X002164Y009872D01*
X002164Y009682D01*
X002623Y009682D01*
X002623Y009681D01*
X002164Y009681D01*
X002164Y009491D01*
X002433Y009221D01*
X002624Y009221D01*
X002674Y009221D01*
X002674Y009172D01*
X002674Y003672D01*
X002720Y003561D01*
X002804Y003477D01*
X004140Y002141D01*
X003839Y002141D01*
X003534Y002015D01*
X003300Y001782D01*
X003174Y001476D01*
X003174Y001146D01*
X003300Y000841D01*
X003534Y000608D01*
X003839Y000481D01*
X004169Y000481D01*
X004474Y000608D01*
X004707Y000841D01*
X004834Y001146D01*
X004834Y001476D01*
X004707Y001782D01*
X004608Y001881D01*
X005384Y001881D01*
X005494Y001927D01*
X005578Y002011D01*
X006108Y002541D01*
X006154Y002652D01*
X006154Y002768D01*
X006286Y002900D01*
X006364Y003088D01*
X006364Y003239D01*
X007291Y002312D01*
X007283Y002308D01*
X007227Y002267D01*
X007178Y002218D01*
X007138Y002162D01*
X007106Y002100D01*
X007085Y002034D01*
X007074Y001966D01*
X007074Y001932D01*
X007773Y001932D01*
X007773Y001931D01*
X007074Y001931D01*
X007074Y001897D01*
X007085Y001828D01*
X007106Y001762D01*
X007138Y001701D01*
X007178Y001645D01*
X007227Y001596D01*
X007283Y001555D01*
X007345Y001524D01*
X007411Y001502D01*
X007479Y001491D01*
X007774Y001491D01*
X008068Y001491D01*
X008137Y001502D01*
X008203Y001524D01*
X008264Y001555D01*
X008320Y001596D01*
X008369Y001645D01*
X008410Y001701D01*
X008442Y001762D01*
X008463Y001828D01*
X008474Y001897D01*
X008474Y001931D01*
X007774Y001931D01*
X007774Y001491D01*
X007774Y001931D01*
X007774Y001931D01*
X007774Y001932D01*
X008474Y001932D01*
X008474Y001966D01*
X008463Y002034D01*
X008442Y002100D01*
X008426Y002131D01*
X011120Y002131D01*
X011074Y002019D01*
X011074Y001844D01*
X011141Y001682D01*
X011265Y001558D01*
X011426Y001491D01*
X012121Y001491D01*
X012283Y001558D01*
X012407Y001682D01*
X012474Y001844D01*
X012474Y002019D01*
X012427Y002131D01*
X012622Y002131D01*
X012606Y002100D01*
X012585Y002034D01*
X012574Y001966D01*
X012574Y001932D01*
X013273Y001932D01*
X013273Y001931D01*
X012574Y001931D01*
X012574Y001897D01*
X012585Y001828D01*
X012606Y001762D01*
X012638Y001701D01*
X012678Y001645D01*
X012727Y001596D01*
X012783Y001555D01*
X012845Y001524D01*
X012911Y001502D01*
X012979Y001491D01*
X013274Y001491D01*
X013568Y001491D01*
X013637Y001502D01*
X013703Y001524D01*
X013764Y001555D01*
X013820Y001596D01*
X013869Y001645D01*
X013910Y001701D01*
X013942Y001762D01*
X013963Y001828D01*
X013974Y001897D01*
X013974Y001931D01*
X013274Y001931D01*
X013274Y001491D01*
X013274Y001931D01*
X013274Y001931D01*
X013274Y001932D01*
X013974Y001932D01*
X013974Y001966D01*
X013963Y002034D01*
X013942Y002100D01*
X013926Y002131D01*
X016620Y002131D01*
X016574Y002019D01*
X016574Y001844D01*
X016641Y001682D01*
X016765Y001558D01*
X016926Y001491D01*
X017621Y001491D01*
X017783Y001558D01*
X017907Y001682D01*
X017974Y001844D01*
X017974Y002019D01*
X017907Y002181D01*
X017783Y002304D01*
X017621Y002371D01*
X017258Y002371D01*
X017074Y002556D01*
X017074Y003010D01*
X017284Y003220D01*
X017284Y003643D01*
X017074Y003853D01*
X017074Y004510D01*
X017284Y004720D01*
X017284Y005143D01*
X016985Y005441D01*
X016563Y005441D01*
X016264Y005143D01*
X016264Y004720D01*
X016474Y004510D01*
X016474Y003853D01*
X016264Y003643D01*
X016264Y003220D01*
X016474Y003010D01*
X016474Y002731D01*
X007720Y002731D01*
X006364Y004088D01*
X006364Y004275D01*
X006286Y004462D01*
X006569Y004462D01*
X006727Y004304D02*
X006352Y004304D01*
X006364Y004145D02*
X006886Y004145D01*
X007045Y003986D02*
X006465Y003986D01*
X006624Y003828D02*
X007203Y003828D01*
X007326Y003705D02*
X007264Y003643D01*
X007264Y003220D01*
X007563Y002921D01*
X007985Y002921D01*
X008284Y003220D01*
X008284Y003643D01*
X007985Y003941D01*
X007938Y003941D01*
X006694Y005186D01*
X006584Y005231D01*
X006464Y005231D01*
X005464Y005231D01*
X005354Y005186D01*
X005270Y005101D01*
X004820Y004651D01*
X004804Y004614D01*
X004785Y004606D01*
X004641Y004462D01*
X003274Y004462D01*
X003274Y004304D02*
X004576Y004304D01*
X004564Y004275D02*
X004564Y004072D01*
X004641Y003885D01*
X004785Y003741D01*
X004933Y003680D01*
X004878Y003662D01*
X004807Y003625D01*
X004742Y003578D01*
X004685Y003521D01*
X004638Y003457D01*
X004601Y003385D01*
X004576Y003309D01*
X004564Y003229D01*
X004564Y003199D01*
X005064Y003199D01*
X005064Y003179D01*
X005084Y003179D01*
X005084Y002679D01*
X005114Y002679D01*
X005193Y002692D01*
X005270Y002717D01*
X005341Y002753D01*
X005406Y002800D01*
X005463Y002857D01*
X005464Y002858D01*
X005520Y002802D01*
X005200Y002481D01*
X004648Y002481D01*
X003274Y003856D01*
X003274Y005645D01*
X003300Y005581D01*
X003534Y005348D01*
X003839Y005221D01*
X004169Y005221D01*
X004474Y005348D01*
X004707Y005581D01*
X004834Y005886D01*
X004834Y006216D01*
X004707Y006522D01*
X004474Y006755D01*
X004169Y006881D01*
X003839Y006881D01*
X003534Y006755D01*
X003300Y006522D01*
X003274Y006458D01*
X003274Y009107D01*
X003388Y009221D01*
X003515Y009221D01*
X003660Y009281D01*
X004714Y009281D01*
X004834Y009281D01*
X005714Y009281D01*
X005834Y009281D01*
X005864Y009281D01*
X005984Y009281D01*
X006025Y009298D01*
X006186Y009231D01*
X006361Y009231D01*
X006523Y009298D01*
X006647Y009422D01*
X006714Y009584D01*
X006714Y010279D01*
X006647Y010441D01*
X006523Y010564D01*
X006361Y010631D01*
X006186Y010631D01*
X006074Y010585D01*
X006074Y010760D01*
X006284Y010970D01*
X006284Y011393D01*
X005995Y011681D01*
X006204Y011890D01*
X006271Y011823D01*
X006458Y011823D01*
X007883Y010398D01*
X007834Y010279D01*
X007834Y009584D01*
X007901Y009422D01*
X008025Y009298D01*
X008186Y009231D01*
X008361Y009231D01*
X008523Y009298D01*
X008647Y009422D01*
X008714Y009584D01*
X008714Y010279D01*
X008647Y010441D01*
X008558Y010530D01*
X008528Y010601D01*
X007806Y011323D01*
X007958Y011323D01*
X008883Y010398D01*
X008834Y010279D01*
X008834Y009584D01*
X008901Y009422D01*
X009025Y009298D01*
X009186Y009231D01*
X009361Y009231D01*
X009523Y009298D01*
X009647Y009422D01*
X009714Y009584D01*
X009714Y010279D01*
X009647Y010441D01*
X009558Y010530D01*
X009528Y010601D01*
X009306Y010823D01*
X009458Y010823D01*
X009883Y010398D01*
X009834Y010279D01*
X009834Y009584D01*
X009901Y009422D01*
X010025Y009298D01*
X010186Y009231D01*
X010361Y009231D01*
X010523Y009298D01*
X010647Y009422D01*
X010714Y009584D01*
X010714Y010279D01*
X010647Y010441D01*
X010558Y010530D01*
X010528Y010601D01*
X009882Y011248D01*
X009882Y011399D01*
X010666Y010615D01*
X010666Y010429D01*
X010771Y010323D01*
X010852Y010323D01*
X010834Y010279D01*
X010834Y009584D01*
X010901Y009422D01*
X011025Y009298D01*
X011186Y009231D01*
X011361Y009231D01*
X011523Y009298D01*
X011647Y009422D01*
X011714Y009584D01*
X011714Y010279D01*
X011647Y010441D01*
X011558Y010530D01*
X011528Y010601D01*
X011382Y010748D01*
X011382Y010934D01*
X011276Y011039D01*
X011090Y011039D01*
X009446Y012683D01*
X009546Y012724D01*
X009681Y012859D01*
X009754Y013036D01*
X009754Y013827D01*
X009681Y014003D01*
X009553Y014131D01*
X009995Y014131D01*
X009867Y014003D01*
X009794Y013827D01*
X009794Y013036D01*
X009867Y012859D01*
X010002Y012724D01*
X010178Y012651D01*
X010369Y012651D01*
X010546Y012724D01*
X010681Y012859D01*
X010754Y013036D01*
X010754Y013827D01*
X010681Y014003D01*
X010553Y014131D01*
X010995Y014131D01*
X010867Y014003D01*
X010794Y013827D01*
X010794Y013036D01*
X010867Y012859D01*
X011002Y012724D01*
X011178Y012651D01*
X011369Y012651D01*
X011546Y012724D01*
X011681Y012859D01*
X011754Y013036D01*
X011754Y013827D01*
X011681Y014003D01*
X011553Y014131D01*
X011995Y014131D01*
X011867Y014003D01*
X011794Y013827D01*
X011794Y013036D01*
X011867Y012859D01*
X012002Y012724D01*
X012101Y012683D01*
X012020Y012601D01*
X011974Y012491D01*
X011974Y012372D01*
X011974Y010514D01*
X011901Y010441D01*
X011834Y010279D01*
X011834Y009584D01*
X011901Y009422D01*
X012014Y009309D01*
X012014Y009282D01*
X011916Y009184D01*
X011916Y008679D01*
X012021Y008573D01*
X012526Y008573D01*
X012632Y008679D01*
X012632Y009184D01*
X012534Y009282D01*
X012534Y009309D01*
X012647Y009422D01*
X012714Y009584D01*
X012714Y010279D01*
X012647Y010441D01*
X012574Y010514D01*
X012574Y012307D01*
X012997Y012730D01*
X013002Y012724D01*
X013101Y012683D01*
X013020Y012601D01*
X012974Y012491D01*
X012974Y012372D01*
X012974Y010514D01*
X012901Y010441D01*
X012834Y010279D01*
X012834Y009584D01*
X012901Y009422D01*
X013014Y009309D01*
X013014Y008782D01*
X012916Y008684D01*
X012916Y008179D01*
X013021Y008073D01*
X013526Y008073D01*
X013632Y008179D01*
X013632Y008684D01*
X013534Y008782D01*
X013534Y009309D01*
X013647Y009422D01*
X013714Y009584D01*
X013714Y010279D01*
X013647Y010441D01*
X013574Y010514D01*
X013574Y012307D01*
X013997Y012730D01*
X014002Y012724D01*
X014101Y012683D01*
X014020Y012601D01*
X013974Y012491D01*
X013974Y012372D01*
X013974Y010514D01*
X013901Y010441D01*
X013834Y010279D01*
X013834Y009584D01*
X013901Y009422D01*
X014014Y009309D01*
X014014Y008282D01*
X013916Y008184D01*
X013916Y007679D01*
X014021Y007573D01*
X014046Y007573D01*
X014025Y007564D01*
X013901Y007441D01*
X013834Y007279D01*
X013834Y006796D01*
X013714Y006916D01*
X013714Y007279D01*
X013647Y007441D01*
X013523Y007564D01*
X013361Y007631D01*
X013186Y007631D01*
X013025Y007564D01*
X012901Y007441D01*
X012834Y007279D01*
X012834Y006584D01*
X012901Y006422D01*
X013025Y006298D01*
X013186Y006231D01*
X013361Y006231D01*
X013474Y006278D01*
X013474Y004556D01*
X012860Y003941D01*
X012563Y003941D01*
X012274Y003653D01*
X012074Y003853D01*
X012074Y005207D01*
X012104Y005177D01*
X012264Y005017D01*
X012264Y004720D01*
X012563Y004421D01*
X012985Y004421D01*
X013284Y004720D01*
X013284Y005143D01*
X012985Y005441D01*
X012688Y005441D01*
X012574Y005556D01*
X012574Y006349D01*
X012647Y006422D01*
X012714Y006584D01*
X012714Y007279D01*
X012647Y007441D01*
X012523Y007564D01*
X012361Y007631D01*
X012186Y007631D01*
X012025Y007564D01*
X011901Y007441D01*
X011834Y007279D01*
X011834Y006796D01*
X011714Y006916D01*
X011714Y007279D01*
X011647Y007441D01*
X011523Y007564D01*
X011361Y007631D01*
X011186Y007631D01*
X011025Y007564D01*
X010901Y007441D01*
X010834Y007279D01*
X010834Y006584D01*
X010901Y006422D01*
X011025Y006298D01*
X011186Y006231D01*
X011361Y006231D01*
X011474Y006278D01*
X011474Y003853D01*
X011264Y003643D01*
X011264Y003220D01*
X011563Y002921D01*
X011985Y002921D01*
X012274Y003210D01*
X012563Y002921D01*
X012985Y002921D01*
X013284Y003220D01*
X013284Y003517D01*
X013944Y004177D01*
X014028Y004261D01*
X014074Y004372D01*
X014074Y006278D01*
X014186Y006231D01*
X014361Y006231D01*
X014523Y006298D01*
X014647Y006422D01*
X014714Y006584D01*
X014714Y007279D01*
X014647Y007441D01*
X014523Y007564D01*
X014501Y007573D01*
X014526Y007573D01*
X014632Y007679D01*
X014632Y008184D01*
X014534Y008282D01*
X014534Y009309D01*
X014647Y009422D01*
X014714Y009584D01*
X014714Y010279D01*
X014647Y010441D01*
X014574Y010514D01*
X014574Y012307D01*
X014997Y012730D01*
X015002Y012724D01*
X015178Y012651D01*
X015369Y012651D01*
X015546Y012724D01*
X015681Y012859D01*
X015754Y013036D01*
X015754Y013827D01*
X015681Y014003D01*
X015553Y014131D01*
X015995Y014131D01*
X015867Y014003D01*
X015794Y013827D01*
X015794Y013036D01*
X015867Y012859D01*
X016002Y012724D01*
X016178Y012651D01*
X016369Y012651D01*
X016546Y012724D01*
X016681Y012859D01*
X016754Y013036D01*
X016754Y013827D01*
X016681Y014003D01*
X016553Y014131D01*
X016974Y014131D01*
X016974Y014110D01*
X016867Y014003D01*
X016794Y013827D01*
X016794Y013036D01*
X016867Y012859D01*
X017002Y012724D01*
X017178Y012651D01*
X017369Y012651D01*
X017546Y012724D01*
X017681Y012859D01*
X017754Y013036D01*
X017754Y013827D01*
X017681Y014003D01*
X017574Y014110D01*
X017574Y014131D01*
X018008Y014131D01*
X017961Y014098D01*
X017908Y014044D01*
X017863Y013983D01*
X017829Y013916D01*
X017806Y013844D01*
X017794Y013769D01*
X017794Y013451D01*
X018254Y013451D01*
X018254Y013411D01*
X018294Y013411D01*
X018294Y012651D01*
X018312Y012651D01*
X018386Y012663D01*
X018458Y012687D01*
X018525Y012721D01*
X018587Y012765D01*
X018640Y012819D01*
X018684Y012880D01*
X018719Y012947D01*
X018742Y013019D01*
X018754Y013094D01*
X018754Y013411D01*
X018294Y013411D01*
X018294Y013451D01*
X018754Y013451D01*
X018754Y013769D01*
X018742Y013844D01*
X018719Y013916D01*
X018684Y013983D01*
X018640Y014044D01*
X018587Y014098D01*
X018540Y014131D01*
X019150Y014131D01*
X019779Y013502D01*
X019685Y013408D01*
X019624Y013261D01*
X019624Y013102D01*
X019685Y012955D01*
X019797Y012842D01*
X019944Y012781D01*
X020103Y012781D01*
X020250Y012842D01*
X020345Y012936D01*
X020924Y012357D01*
X020924Y009960D01*
X020723Y010161D01*
X020325Y010161D01*
X020243Y010080D01*
X017921Y012402D01*
X017826Y012441D01*
X017722Y012441D01*
X016125Y012441D01*
X016026Y012539D01*
X015521Y012539D01*
X015416Y012434D01*
X015416Y011929D01*
X015416Y011434D01*
X015416Y010934D01*
X015416Y010609D01*
X015361Y010631D01*
X015186Y010631D01*
X015025Y010564D01*
X014901Y010441D01*
X014834Y010279D01*
X014834Y009584D01*
X014901Y009422D01*
X015025Y009298D01*
X015186Y009231D01*
X015361Y009231D01*
X015523Y009298D01*
X015647Y009422D01*
X015714Y009584D01*
X015714Y010279D01*
X015695Y010323D01*
X016026Y010323D01*
X016125Y010421D01*
X017166Y010421D01*
X019044Y008544D01*
X019044Y008483D01*
X019325Y008201D01*
X019723Y008201D01*
X020004Y008483D01*
X020004Y008834D01*
X020044Y008794D01*
X020044Y008483D01*
X020325Y008201D01*
X020723Y008201D01*
X020924Y008403D01*
X020924Y007960D01*
X020723Y008161D01*
X020325Y008161D01*
X020044Y007880D01*
X020044Y007483D01*
X020325Y007201D01*
X020723Y007201D01*
X020924Y007403D01*
X020924Y006960D01*
X020723Y007161D01*
X020325Y007161D01*
X020044Y006880D01*
X020044Y006483D01*
X020325Y006201D01*
X020723Y006201D01*
X020924Y006403D01*
X020924Y005960D01*
X020723Y006161D01*
X020325Y006161D01*
X020243Y006080D01*
X019994Y006329D01*
X019922Y006401D01*
X020004Y006483D01*
X020004Y006880D01*
X019723Y007161D01*
X019325Y007161D01*
X019044Y006880D01*
X019044Y006779D01*
X016671Y009152D01*
X016632Y009168D01*
X016632Y009184D01*
X016526Y009289D01*
X016021Y009289D01*
X015916Y009184D01*
X015916Y008679D01*
X015916Y008179D01*
X015916Y007679D01*
X016021Y007573D01*
X016514Y007573D01*
X019126Y004962D01*
X019044Y004880D01*
X019044Y004483D01*
X019325Y004201D01*
X019723Y004201D01*
X020004Y004483D01*
X020004Y004584D01*
X020044Y004544D01*
X020044Y004483D01*
X020325Y004201D01*
X020723Y004201D01*
X020924Y004403D01*
X020924Y003960D01*
X020723Y004161D01*
X020325Y004161D01*
X020044Y003880D01*
X020044Y003483D01*
X020224Y003303D01*
X020224Y003141D01*
X020224Y003194D02*
X017257Y003194D01*
X017284Y003352D02*
X019174Y003352D01*
X019044Y003483D02*
X019325Y003201D01*
X019723Y003201D01*
X020004Y003483D01*
X020004Y003880D01*
X019723Y004161D01*
X019325Y004161D01*
X019044Y003880D01*
X019044Y003483D01*
X019044Y003511D02*
X017284Y003511D01*
X017257Y003669D02*
X019044Y003669D01*
X019044Y003828D02*
X017099Y003828D01*
X017074Y003986D02*
X019150Y003986D01*
X019309Y004145D02*
X017074Y004145D01*
X017074Y004304D02*
X019223Y004304D01*
X019064Y004462D02*
X017074Y004462D01*
X017184Y004621D02*
X019044Y004621D01*
X019044Y004779D02*
X017284Y004779D01*
X017284Y004938D02*
X019101Y004938D01*
X018991Y005096D02*
X017284Y005096D01*
X017172Y005255D02*
X018833Y005255D01*
X018674Y005413D02*
X017013Y005413D01*
X016535Y005413D02*
X014074Y005413D01*
X014074Y005255D02*
X016376Y005255D01*
X016264Y005096D02*
X014074Y005096D01*
X014074Y004938D02*
X016264Y004938D01*
X016264Y004779D02*
X014074Y004779D01*
X014074Y004621D02*
X016363Y004621D01*
X016474Y004462D02*
X014074Y004462D01*
X014046Y004304D02*
X016474Y004304D01*
X016474Y004145D02*
X013912Y004145D01*
X013753Y003986D02*
X016474Y003986D01*
X016449Y003828D02*
X013595Y003828D01*
X013436Y003669D02*
X016291Y003669D01*
X016264Y003511D02*
X013284Y003511D01*
X013284Y003352D02*
X016264Y003352D01*
X016290Y003194D02*
X013257Y003194D01*
X013099Y003035D02*
X016449Y003035D01*
X016474Y002877D02*
X007575Y002877D01*
X007449Y003035D02*
X007416Y003035D01*
X007290Y003194D02*
X007258Y003194D01*
X007264Y003352D02*
X007099Y003352D01*
X006941Y003511D02*
X007264Y003511D01*
X007291Y003669D02*
X006782Y003669D01*
X007326Y003705D02*
X006400Y004631D01*
X006081Y004631D01*
X006143Y004606D01*
X006286Y004462D01*
X006410Y004621D02*
X006107Y004621D01*
X006942Y004938D02*
X008264Y004938D01*
X008264Y005033D02*
X008264Y004830D01*
X008341Y004643D01*
X008485Y004499D01*
X008672Y004421D01*
X008875Y004421D01*
X009063Y004499D01*
X009206Y004643D01*
X009276Y004812D01*
X009276Y004812D01*
X009301Y004736D01*
X009338Y004664D01*
X009385Y004599D01*
X009442Y004542D01*
X009507Y004495D01*
X009578Y004459D01*
X009654Y004434D01*
X009734Y004421D01*
X009774Y004421D01*
X009814Y004421D01*
X009893Y004434D01*
X009970Y004459D01*
X010041Y004495D01*
X010106Y004542D01*
X010163Y004599D01*
X010210Y004664D01*
X010246Y004736D01*
X010271Y004812D01*
X010341Y004643D01*
X010485Y004499D01*
X010672Y004421D01*
X010875Y004421D01*
X011063Y004499D01*
X011206Y004643D01*
X011284Y004830D01*
X011284Y005033D01*
X011206Y005220D01*
X011063Y005364D01*
X010875Y005441D01*
X010688Y005441D01*
X010574Y005556D01*
X010574Y006349D01*
X010647Y006422D01*
X010714Y006584D01*
X010714Y007279D01*
X010647Y007441D01*
X010523Y007564D01*
X010361Y007631D01*
X010186Y007631D01*
X010025Y007564D01*
X009901Y007441D01*
X009834Y007279D01*
X009834Y006584D01*
X009901Y006422D01*
X009974Y006349D01*
X009974Y005402D01*
X009970Y005404D01*
X009893Y005429D01*
X009814Y005441D01*
X009774Y005441D01*
X009774Y004932D01*
X009774Y004932D01*
X009774Y005441D01*
X009734Y005441D01*
X009654Y005429D01*
X009578Y005404D01*
X009574Y005402D01*
X009574Y006349D01*
X009647Y006422D01*
X009714Y006584D01*
X009714Y007279D01*
X009647Y007441D01*
X009523Y007564D01*
X009361Y007631D01*
X009186Y007631D01*
X009025Y007564D01*
X008901Y007441D01*
X008834Y007279D01*
X008834Y006584D01*
X008901Y006422D01*
X008974Y006349D01*
X008974Y005556D01*
X008860Y005441D01*
X008672Y005441D01*
X008485Y005364D01*
X008341Y005220D01*
X008264Y005033D01*
X008290Y005096D02*
X006783Y005096D01*
X007100Y004779D02*
X008285Y004779D01*
X008363Y004621D02*
X007259Y004621D01*
X007417Y004462D02*
X008574Y004462D01*
X008973Y004462D02*
X009572Y004462D01*
X009774Y004462D02*
X009774Y004462D01*
X009774Y004421D02*
X009774Y004931D01*
X009774Y004931D01*
X009774Y004421D01*
X009774Y004621D02*
X009774Y004621D01*
X009976Y004462D02*
X010574Y004462D01*
X010363Y004621D02*
X010178Y004621D01*
X010261Y004779D02*
X010285Y004779D01*
X010271Y004812D02*
X010271Y004812D01*
X009774Y004779D02*
X009774Y004779D01*
X009774Y004938D02*
X009774Y004938D01*
X009774Y005096D02*
X009774Y005096D01*
X009774Y005255D02*
X009774Y005255D01*
X009774Y005413D02*
X009774Y005413D01*
X009941Y005413D02*
X009974Y005413D01*
X009974Y005572D02*
X009574Y005572D01*
X009574Y005730D02*
X009974Y005730D01*
X009974Y005889D02*
X009574Y005889D01*
X009574Y006048D02*
X009974Y006048D01*
X009974Y006206D02*
X009574Y006206D01*
X009589Y006365D02*
X009958Y006365D01*
X009859Y006523D02*
X009689Y006523D01*
X009714Y006682D02*
X009834Y006682D01*
X009834Y006840D02*
X009714Y006840D01*
X009714Y006999D02*
X009834Y006999D01*
X009834Y007157D02*
X009714Y007157D01*
X009699Y007316D02*
X009849Y007316D01*
X009935Y007474D02*
X009613Y007474D01*
X008935Y007474D02*
X008613Y007474D01*
X008647Y007441D02*
X008523Y007564D01*
X008361Y007631D01*
X008186Y007631D01*
X008025Y007564D01*
X007901Y007441D01*
X007834Y007279D01*
X007834Y006584D01*
X007901Y006422D01*
X008025Y006298D01*
X008186Y006231D01*
X008361Y006231D01*
X008523Y006298D01*
X008647Y006422D01*
X008714Y006584D01*
X008714Y007279D01*
X008647Y007441D01*
X008699Y007316D02*
X008849Y007316D01*
X008834Y007157D02*
X008714Y007157D01*
X008714Y006999D02*
X008834Y006999D01*
X008834Y006840D02*
X008714Y006840D01*
X008714Y006682D02*
X008834Y006682D01*
X008859Y006523D02*
X008689Y006523D01*
X008589Y006365D02*
X008958Y006365D01*
X008974Y006206D02*
X004834Y006206D01*
X004834Y006048D02*
X008974Y006048D01*
X008974Y005889D02*
X004834Y005889D01*
X004769Y005730D02*
X008974Y005730D01*
X008974Y005572D02*
X004698Y005572D01*
X004540Y005413D02*
X008605Y005413D01*
X008376Y005255D02*
X004250Y005255D01*
X003758Y005255D02*
X003274Y005255D01*
X003274Y005413D02*
X003468Y005413D01*
X003310Y005572D02*
X003274Y005572D01*
X003274Y005096D02*
X005264Y005096D01*
X005106Y004938D02*
X003274Y004938D01*
X003274Y004779D02*
X004947Y004779D01*
X004807Y004621D02*
X003274Y004621D01*
X003274Y004145D02*
X004564Y004145D01*
X004564Y004275D02*
X004641Y004462D01*
X004599Y003986D02*
X003274Y003986D01*
X003302Y003828D02*
X004698Y003828D01*
X004901Y003669D02*
X003460Y003669D01*
X003619Y003511D02*
X004677Y003511D01*
X004591Y003352D02*
X003777Y003352D01*
X003936Y003194D02*
X005064Y003194D01*
X005064Y003179D02*
X004564Y003179D01*
X004564Y003149D01*
X004576Y003070D01*
X004601Y002994D01*
X004638Y002922D01*
X004685Y002857D01*
X004742Y002800D01*
X004807Y002753D01*
X004878Y002717D01*
X004954Y002692D01*
X005034Y002679D01*
X005064Y002679D01*
X005064Y003179D01*
X005064Y003035D02*
X005084Y003035D01*
X005084Y002877D02*
X005064Y002877D01*
X005064Y002718D02*
X005084Y002718D01*
X005272Y002718D02*
X005436Y002718D01*
X005278Y002560D02*
X004570Y002560D01*
X004411Y002718D02*
X004875Y002718D01*
X004671Y002877D02*
X004253Y002877D01*
X004094Y003035D02*
X004588Y003035D01*
X003880Y002401D02*
X001954Y002401D01*
X001954Y002242D02*
X004039Y002242D01*
X003700Y002084D02*
X001954Y002084D01*
X001954Y001925D02*
X003444Y001925D01*
X003294Y001767D02*
X001954Y001767D01*
X001954Y001608D02*
X003228Y001608D01*
X003174Y001450D02*
X001954Y001450D01*
X001954Y001291D02*
X003174Y001291D01*
X003179Y001133D02*
X001954Y001133D01*
X001954Y000974D02*
X003245Y000974D01*
X003326Y000816D02*
X001954Y000816D01*
X001954Y000657D02*
X003484Y000657D01*
X003797Y000499D02*
X001954Y000499D01*
X004210Y000499D02*
X021279Y000499D01*
X021279Y000657D02*
X004523Y000657D01*
X004682Y000816D02*
X021279Y000816D01*
X021279Y000974D02*
X004762Y000974D01*
X004828Y001133D02*
X019212Y001133D01*
X019166Y001291D02*
X004834Y001291D01*
X004834Y001450D02*
X019166Y001450D01*
X019166Y001608D02*
X017833Y001608D01*
X017942Y001767D02*
X019249Y001767D01*
X019279Y001925D02*
X017974Y001925D01*
X017947Y002084D02*
X019279Y002084D01*
X019279Y002242D02*
X017845Y002242D01*
X017228Y002401D02*
X019279Y002401D01*
X019279Y002560D02*
X017074Y002560D01*
X017074Y002718D02*
X019739Y002718D01*
X019739Y002877D02*
X019809Y002877D01*
X019809Y003035D02*
X019739Y003035D01*
X019874Y003352D02*
X020174Y003352D01*
X020044Y003511D02*
X020004Y003511D01*
X020004Y003669D02*
X020044Y003669D01*
X020044Y003828D02*
X020004Y003828D01*
X019898Y003986D02*
X020150Y003986D01*
X020309Y004145D02*
X019739Y004145D01*
X019825Y004304D02*
X020223Y004304D01*
X020064Y004462D02*
X019983Y004462D01*
X020274Y004681D02*
X019774Y005181D01*
X019274Y005181D01*
X016524Y007931D01*
X016274Y007931D01*
X015916Y007950D02*
X014632Y007950D01*
X014632Y007791D02*
X015916Y007791D01*
X015962Y007633D02*
X014586Y007633D01*
X014613Y007474D02*
X014936Y007474D01*
X014938Y007478D02*
X014898Y007422D01*
X014866Y007360D01*
X014845Y007294D01*
X014834Y007226D01*
X014834Y006932D01*
X015273Y006932D01*
X015273Y006931D01*
X014834Y006931D01*
X014834Y006637D01*
X014845Y006568D01*
X014866Y006502D01*
X014898Y006441D01*
X014938Y006385D01*
X014987Y006336D01*
X015043Y006295D01*
X015105Y006264D01*
X015171Y006242D01*
X015239Y006231D01*
X015274Y006231D01*
X015308Y006231D01*
X015377Y006242D01*
X015443Y006264D01*
X015504Y006295D01*
X015560Y006336D01*
X015609Y006385D01*
X015650Y006441D01*
X015682Y006502D01*
X015703Y006568D01*
X015714Y006637D01*
X015714Y006931D01*
X015274Y006931D01*
X015274Y006231D01*
X015274Y006931D01*
X015274Y006931D01*
X015274Y006932D01*
X015274Y006932D01*
X015274Y007631D01*
X015308Y007631D01*
X015377Y007621D01*
X015443Y007599D01*
X015504Y007568D01*
X015560Y007527D01*
X015609Y007478D01*
X015650Y007422D01*
X015682Y007360D01*
X015703Y007294D01*
X015714Y007226D01*
X015714Y006932D01*
X015274Y006932D01*
X015274Y007631D01*
X015239Y007631D01*
X015171Y007621D01*
X015105Y007599D01*
X015043Y007568D01*
X014987Y007527D01*
X014938Y007478D01*
X014852Y007316D02*
X014699Y007316D01*
X014714Y007157D02*
X014834Y007157D01*
X014834Y006999D02*
X014714Y006999D01*
X014714Y006840D02*
X014834Y006840D01*
X014834Y006682D02*
X014714Y006682D01*
X014689Y006523D02*
X014859Y006523D01*
X014958Y006365D02*
X014589Y006365D01*
X014074Y006206D02*
X017881Y006206D01*
X017723Y006365D02*
X015589Y006365D01*
X015688Y006523D02*
X017564Y006523D01*
X017406Y006682D02*
X015714Y006682D01*
X015714Y006840D02*
X017247Y006840D01*
X017089Y006999D02*
X015714Y006999D01*
X015714Y007157D02*
X016930Y007157D01*
X016772Y007316D02*
X015696Y007316D01*
X015612Y007474D02*
X016613Y007474D01*
X015916Y008109D02*
X014632Y008109D01*
X014549Y008267D02*
X015916Y008267D01*
X015916Y008426D02*
X014534Y008426D01*
X014534Y008584D02*
X015916Y008584D01*
X015916Y008743D02*
X014534Y008743D01*
X014534Y008901D02*
X015916Y008901D01*
X015916Y009060D02*
X014534Y009060D01*
X014534Y009218D02*
X015950Y009218D01*
X015602Y009377D02*
X018211Y009377D01*
X018369Y009218D02*
X016598Y009218D01*
X016763Y009060D02*
X018528Y009060D01*
X018686Y008901D02*
X016922Y008901D01*
X017080Y008743D02*
X018845Y008743D01*
X019003Y008584D02*
X017239Y008584D01*
X017397Y008426D02*
X019101Y008426D01*
X019259Y008267D02*
X017556Y008267D01*
X017714Y008109D02*
X019272Y008109D01*
X019325Y008161D02*
X019044Y007880D01*
X019044Y007483D01*
X019325Y007201D01*
X019723Y007201D01*
X020004Y007483D01*
X020004Y007880D01*
X019723Y008161D01*
X019325Y008161D01*
X019114Y007950D02*
X017873Y007950D01*
X018031Y007791D02*
X019044Y007791D01*
X019044Y007633D02*
X018190Y007633D01*
X018349Y007474D02*
X019052Y007474D01*
X019211Y007316D02*
X018507Y007316D01*
X018666Y007157D02*
X019321Y007157D01*
X019162Y006999D02*
X018824Y006999D01*
X018983Y006840D02*
X019044Y006840D01*
X019727Y007157D02*
X020321Y007157D01*
X020162Y006999D02*
X019885Y006999D01*
X020004Y006840D02*
X020044Y006840D01*
X020044Y006682D02*
X020004Y006682D01*
X020004Y006523D02*
X020044Y006523D01*
X019958Y006365D02*
X020162Y006365D01*
X020117Y006206D02*
X020320Y006206D01*
X020727Y006206D02*
X020924Y006206D01*
X020924Y006048D02*
X020836Y006048D01*
X020886Y006365D02*
X020924Y006365D01*
X020924Y006999D02*
X020885Y006999D01*
X020924Y007157D02*
X020727Y007157D01*
X020837Y007316D02*
X020924Y007316D01*
X020211Y007316D02*
X019837Y007316D01*
X019996Y007474D02*
X020052Y007474D01*
X020044Y007633D02*
X020004Y007633D01*
X020004Y007791D02*
X020044Y007791D01*
X020114Y007950D02*
X019934Y007950D01*
X019775Y008109D02*
X020272Y008109D01*
X020259Y008267D02*
X019788Y008267D01*
X019947Y008426D02*
X020101Y008426D01*
X020044Y008584D02*
X020004Y008584D01*
X020004Y008743D02*
X020044Y008743D01*
X020024Y009181D02*
X020524Y008681D01*
X020788Y008267D02*
X020924Y008267D01*
X020924Y008109D02*
X020775Y008109D01*
X019524Y008681D02*
X019274Y008681D01*
X017274Y010681D01*
X015774Y010681D01*
X015416Y010645D02*
X014574Y010645D01*
X014574Y010804D02*
X015416Y010804D01*
X015416Y010962D02*
X014574Y010962D01*
X014574Y011121D02*
X015416Y011121D01*
X015416Y011279D02*
X014574Y011279D01*
X014574Y011438D02*
X015416Y011438D01*
X015416Y011597D02*
X014574Y011597D01*
X014574Y011755D02*
X015416Y011755D01*
X015416Y011914D02*
X014574Y011914D01*
X014574Y012072D02*
X015416Y012072D01*
X015416Y012231D02*
X014574Y012231D01*
X014656Y012389D02*
X015416Y012389D01*
X015502Y012706D02*
X016046Y012706D01*
X015865Y012865D02*
X015683Y012865D01*
X015749Y013023D02*
X015799Y013023D01*
X015794Y013182D02*
X015754Y013182D01*
X015754Y013341D02*
X015794Y013341D01*
X015794Y013499D02*
X015754Y013499D01*
X015754Y013658D02*
X015794Y013658D01*
X015794Y013816D02*
X015754Y013816D01*
X015693Y013975D02*
X015855Y013975D01*
X016693Y013975D02*
X016855Y013975D01*
X016794Y013816D02*
X016754Y013816D01*
X016754Y013658D02*
X016794Y013658D01*
X016794Y013499D02*
X016754Y013499D01*
X016754Y013341D02*
X016794Y013341D01*
X016794Y013182D02*
X016754Y013182D01*
X016749Y013023D02*
X016799Y013023D01*
X016865Y012865D02*
X016683Y012865D01*
X016502Y012706D02*
X017046Y012706D01*
X017502Y012706D02*
X018051Y012706D01*
X018022Y012721D02*
X018090Y012687D01*
X018161Y012663D01*
X018236Y012651D01*
X018254Y012651D01*
X018254Y013411D01*
X017794Y013411D01*
X017794Y013094D01*
X017806Y013019D01*
X017829Y012947D01*
X017863Y012880D01*
X017908Y012819D01*
X017961Y012765D01*
X018022Y012721D01*
X017874Y012865D02*
X017683Y012865D01*
X017749Y013023D02*
X017805Y013023D01*
X017794Y013182D02*
X017754Y013182D01*
X017754Y013341D02*
X017794Y013341D01*
X017794Y013499D02*
X017754Y013499D01*
X017754Y013658D02*
X017794Y013658D01*
X017801Y013816D02*
X017754Y013816D01*
X017693Y013975D02*
X017859Y013975D01*
X018254Y013341D02*
X018294Y013341D01*
X018294Y013182D02*
X018254Y013182D01*
X018254Y013023D02*
X018294Y013023D01*
X018294Y012865D02*
X018254Y012865D01*
X018254Y012706D02*
X018294Y012706D01*
X018497Y012706D02*
X020575Y012706D01*
X020733Y012548D02*
X020184Y012548D01*
X020250Y012520D02*
X020103Y012581D01*
X019944Y012581D01*
X019797Y012520D01*
X019685Y012408D01*
X019624Y012261D01*
X019624Y012102D01*
X019685Y011955D01*
X019797Y011842D01*
X019944Y011781D01*
X020103Y011781D01*
X020250Y011842D01*
X020363Y011955D01*
X020424Y012102D01*
X020424Y012261D01*
X020363Y012408D01*
X020250Y012520D01*
X020371Y012389D02*
X020892Y012389D01*
X020924Y012231D02*
X020424Y012231D01*
X020412Y012072D02*
X020924Y012072D01*
X020924Y011914D02*
X020322Y011914D01*
X020141Y011566D02*
X020063Y011581D01*
X020024Y011581D01*
X020024Y011182D01*
X020024Y011182D01*
X020024Y011581D01*
X019984Y011581D01*
X019907Y011566D01*
X019834Y011536D01*
X019769Y011492D01*
X019713Y011436D01*
X019669Y011371D01*
X019639Y011298D01*
X019624Y011221D01*
X019624Y011182D01*
X020023Y011182D01*
X020023Y011181D01*
X019624Y011181D01*
X019624Y011142D01*
X019639Y011065D01*
X019669Y010992D01*
X019713Y010926D01*
X019769Y010871D01*
X019834Y010827D01*
X019907Y010797D01*
X019984Y010781D01*
X020024Y010781D01*
X020063Y010781D01*
X020141Y010797D01*
X020213Y010827D01*
X020279Y010871D01*
X020335Y010926D01*
X020378Y010992D01*
X020408Y011065D01*
X020424Y011142D01*
X020424Y011181D01*
X020024Y011181D01*
X020024Y010781D01*
X020024Y011181D01*
X020024Y011181D01*
X020024Y011182D01*
X020424Y011182D01*
X020424Y011221D01*
X020408Y011298D01*
X020378Y011371D01*
X020335Y011436D01*
X020279Y011492D01*
X020213Y011536D01*
X020141Y011566D01*
X020024Y011438D02*
X020024Y011438D01*
X020024Y011279D02*
X020024Y011279D01*
X020024Y011121D02*
X020024Y011121D01*
X020024Y010962D02*
X020024Y010962D01*
X020024Y010804D02*
X020024Y010804D01*
X020158Y010804D02*
X020924Y010804D01*
X020924Y010962D02*
X020359Y010962D01*
X020420Y011121D02*
X020924Y011121D01*
X020924Y011279D02*
X020412Y011279D01*
X020333Y011438D02*
X020924Y011438D01*
X020924Y011597D02*
X018726Y011597D01*
X018568Y011755D02*
X020924Y011755D01*
X019726Y011914D02*
X018409Y011914D01*
X018251Y012072D02*
X019636Y012072D01*
X019624Y012231D02*
X018092Y012231D01*
X017934Y012389D02*
X019677Y012389D01*
X019863Y012548D02*
X014814Y012548D01*
X014973Y012706D02*
X015046Y012706D01*
X015774Y012181D02*
X017774Y012181D01*
X020274Y009681D01*
X020524Y009681D01*
X020873Y010011D02*
X020924Y010011D01*
X020924Y010170D02*
X020153Y010170D01*
X019995Y010328D02*
X020924Y010328D01*
X020924Y010487D02*
X019836Y010487D01*
X019678Y010645D02*
X020924Y010645D01*
X019890Y010804D02*
X019519Y010804D01*
X019361Y010962D02*
X019689Y010962D01*
X019628Y011121D02*
X019202Y011121D01*
X019043Y011279D02*
X019636Y011279D01*
X019715Y011438D02*
X018885Y011438D01*
X017524Y011681D02*
X019524Y009681D01*
X019274Y009181D02*
X017274Y011181D01*
X015774Y011181D01*
X015774Y011681D02*
X017524Y011681D01*
X018673Y012865D02*
X019775Y012865D01*
X019656Y013023D02*
X018743Y013023D01*
X018754Y013182D02*
X019624Y013182D01*
X019657Y013341D02*
X018754Y013341D01*
X018754Y013499D02*
X019776Y013499D01*
X019623Y013658D02*
X018754Y013658D01*
X018746Y013816D02*
X019465Y013816D01*
X019306Y013975D02*
X018689Y013975D01*
X020273Y012865D02*
X020416Y012865D01*
X017259Y010328D02*
X016031Y010328D01*
X015714Y010170D02*
X017418Y010170D01*
X017576Y010011D02*
X015714Y010011D01*
X015714Y009853D02*
X017735Y009853D01*
X017894Y009694D02*
X015714Y009694D01*
X015694Y009535D02*
X018052Y009535D01*
X019274Y009181D02*
X020024Y009181D01*
X019274Y006181D02*
X016524Y008931D01*
X016274Y008931D01*
X016274Y008431D02*
X016524Y008431D01*
X019274Y005681D01*
X019524Y005681D01*
X019274Y006181D02*
X019774Y006181D01*
X020274Y005681D01*
X020524Y005681D01*
X020524Y004681D02*
X020274Y004681D01*
X020825Y004304D02*
X020924Y004304D01*
X020924Y004145D02*
X020739Y004145D01*
X020898Y003986D02*
X020924Y003986D01*
X019294Y003035D02*
X017099Y003035D01*
X017074Y002877D02*
X019279Y002877D01*
X020959Y001767D02*
X021279Y001767D01*
X021279Y001608D02*
X020074Y001608D01*
X020074Y001450D02*
X021279Y001450D01*
X021279Y001291D02*
X020040Y001291D01*
X019837Y001133D02*
X021279Y001133D01*
X016715Y001608D02*
X013833Y001608D01*
X013943Y001767D02*
X016606Y001767D01*
X016574Y001925D02*
X013974Y001925D01*
X013947Y002084D02*
X016601Y002084D01*
X013274Y001925D02*
X013274Y001925D01*
X013274Y001767D02*
X013274Y001767D01*
X013274Y001608D02*
X013274Y001608D01*
X012715Y001608D02*
X012333Y001608D01*
X012442Y001767D02*
X012605Y001767D01*
X012574Y001925D02*
X012474Y001925D01*
X012447Y002084D02*
X012601Y002084D01*
X012449Y003035D02*
X012099Y003035D01*
X012257Y003194D02*
X012290Y003194D01*
X012291Y003669D02*
X012257Y003669D01*
X012099Y003828D02*
X012449Y003828D01*
X012074Y003986D02*
X012905Y003986D01*
X013063Y004145D02*
X012074Y004145D01*
X012074Y004304D02*
X013222Y004304D01*
X013380Y004462D02*
X013026Y004462D01*
X013184Y004621D02*
X013474Y004621D01*
X013474Y004779D02*
X013284Y004779D01*
X013284Y004938D02*
X013474Y004938D01*
X013474Y005096D02*
X013284Y005096D01*
X013172Y005255D02*
X013474Y005255D01*
X013474Y005413D02*
X013013Y005413D01*
X012574Y005572D02*
X013474Y005572D01*
X013474Y005730D02*
X012574Y005730D01*
X012574Y005889D02*
X013474Y005889D01*
X013474Y006048D02*
X012574Y006048D01*
X012574Y006206D02*
X013474Y006206D01*
X014074Y006048D02*
X018040Y006048D01*
X018199Y005889D02*
X014074Y005889D01*
X014074Y005730D02*
X018357Y005730D01*
X018516Y005572D02*
X014074Y005572D01*
X012958Y006365D02*
X012589Y006365D01*
X012689Y006523D02*
X012859Y006523D01*
X012834Y006682D02*
X012714Y006682D01*
X012714Y006840D02*
X012834Y006840D01*
X012834Y006999D02*
X012714Y006999D01*
X012714Y007157D02*
X012834Y007157D01*
X012849Y007316D02*
X012699Y007316D01*
X012613Y007474D02*
X012935Y007474D01*
X013613Y007474D02*
X013935Y007474D01*
X013962Y007633D02*
X005044Y007633D01*
X004985Y007691D02*
X004563Y007691D01*
X004264Y007393D01*
X004264Y006970D01*
X004563Y006671D01*
X004868Y006671D01*
X004964Y006631D01*
X005834Y006631D01*
X005834Y006584D01*
X005901Y006422D01*
X006025Y006298D01*
X006186Y006231D01*
X006361Y006231D01*
X006523Y006298D01*
X006647Y006422D01*
X006714Y006584D01*
X006714Y007279D01*
X006647Y007441D01*
X006523Y007564D01*
X006361Y007631D01*
X006186Y007631D01*
X006025Y007564D01*
X005901Y007441D01*
X005834Y007279D01*
X005834Y007231D01*
X005284Y007231D01*
X005284Y007393D01*
X004985Y007691D01*
X005202Y007474D02*
X005935Y007474D01*
X005849Y007316D02*
X005284Y007316D01*
X004504Y007633D02*
X003274Y007633D01*
X003274Y007791D02*
X013916Y007791D01*
X013916Y007950D02*
X003274Y007950D01*
X003274Y008109D02*
X012986Y008109D01*
X012916Y008267D02*
X003274Y008267D01*
X003274Y008426D02*
X012916Y008426D01*
X012916Y008584D02*
X012537Y008584D01*
X012632Y008743D02*
X012974Y008743D01*
X013014Y008901D02*
X012632Y008901D01*
X012632Y009060D02*
X013014Y009060D01*
X013014Y009218D02*
X012598Y009218D01*
X012602Y009377D02*
X012946Y009377D01*
X012854Y009535D02*
X012694Y009535D01*
X012714Y009694D02*
X012834Y009694D01*
X012834Y009853D02*
X012714Y009853D01*
X012714Y010011D02*
X012834Y010011D01*
X012834Y010170D02*
X012714Y010170D01*
X012693Y010328D02*
X012854Y010328D01*
X012947Y010487D02*
X012601Y010487D01*
X012574Y010645D02*
X012974Y010645D01*
X012974Y010804D02*
X012574Y010804D01*
X012574Y010962D02*
X012974Y010962D01*
X012974Y011121D02*
X012574Y011121D01*
X012574Y011279D02*
X012974Y011279D01*
X012974Y011438D02*
X012574Y011438D01*
X012574Y011597D02*
X012974Y011597D01*
X012974Y011755D02*
X012574Y011755D01*
X012574Y011914D02*
X012974Y011914D01*
X012974Y012072D02*
X012574Y012072D01*
X012574Y012231D02*
X012974Y012231D01*
X012974Y012389D02*
X012656Y012389D01*
X012814Y012548D02*
X012997Y012548D01*
X012973Y012706D02*
X013046Y012706D01*
X013656Y012389D02*
X013974Y012389D01*
X013997Y012548D02*
X013814Y012548D01*
X013973Y012706D02*
X014046Y012706D01*
X013974Y012231D02*
X013574Y012231D01*
X013574Y012072D02*
X013974Y012072D01*
X013974Y011914D02*
X013574Y011914D01*
X013574Y011755D02*
X013974Y011755D01*
X013974Y011597D02*
X013574Y011597D01*
X013574Y011438D02*
X013974Y011438D01*
X013974Y011279D02*
X013574Y011279D01*
X013574Y011121D02*
X013974Y011121D01*
X013974Y010962D02*
X013574Y010962D01*
X013574Y010804D02*
X013974Y010804D01*
X013974Y010645D02*
X013574Y010645D01*
X013601Y010487D02*
X013947Y010487D01*
X013854Y010328D02*
X013693Y010328D01*
X013714Y010170D02*
X013834Y010170D01*
X013834Y010011D02*
X013714Y010011D01*
X013714Y009853D02*
X013834Y009853D01*
X013834Y009694D02*
X013714Y009694D01*
X013694Y009535D02*
X013854Y009535D01*
X013946Y009377D02*
X013602Y009377D01*
X013534Y009218D02*
X014014Y009218D01*
X014014Y009060D02*
X013534Y009060D01*
X013534Y008901D02*
X014014Y008901D01*
X014014Y008743D02*
X013573Y008743D01*
X013632Y008584D02*
X014014Y008584D01*
X014014Y008426D02*
X013632Y008426D01*
X013632Y008267D02*
X013999Y008267D01*
X013916Y008109D02*
X013562Y008109D01*
X013274Y008431D02*
X013274Y009931D01*
X014274Y009931D02*
X014274Y007931D01*
X013849Y007316D02*
X013699Y007316D01*
X013714Y007157D02*
X013834Y007157D01*
X013834Y006999D02*
X013714Y006999D01*
X013789Y006840D02*
X013834Y006840D01*
X015274Y006840D02*
X015274Y006840D01*
X015274Y006682D02*
X015274Y006682D01*
X015274Y006523D02*
X015274Y006523D01*
X015274Y006365D02*
X015274Y006365D01*
X015274Y006999D02*
X015274Y006999D01*
X015274Y007157D02*
X015274Y007157D01*
X015274Y007316D02*
X015274Y007316D01*
X015274Y007474D02*
X015274Y007474D01*
X014946Y009377D02*
X014602Y009377D01*
X014694Y009535D02*
X014854Y009535D01*
X014834Y009694D02*
X014714Y009694D01*
X014714Y009853D02*
X014834Y009853D01*
X014834Y010011D02*
X014714Y010011D01*
X014714Y010170D02*
X014834Y010170D01*
X014854Y010328D02*
X014693Y010328D01*
X014601Y010487D02*
X014947Y010487D01*
X012274Y009931D02*
X012274Y008931D01*
X011916Y008901D02*
X003274Y008901D01*
X003274Y008743D02*
X011916Y008743D01*
X012010Y008584D02*
X003274Y008584D01*
X003274Y009060D02*
X011916Y009060D01*
X011950Y009218D02*
X003385Y009218D01*
X002674Y009218D02*
X001954Y009218D01*
X001954Y009060D02*
X002674Y009060D01*
X002674Y008901D02*
X001954Y008901D01*
X001954Y008743D02*
X002674Y008743D01*
X002674Y008584D02*
X001954Y008584D01*
X001954Y008426D02*
X002674Y008426D01*
X002674Y008267D02*
X001954Y008267D01*
X001954Y008109D02*
X002674Y008109D01*
X002674Y007950D02*
X001954Y007950D01*
X001954Y007791D02*
X002674Y007791D01*
X002674Y007633D02*
X001954Y007633D01*
X001954Y007474D02*
X002674Y007474D01*
X002674Y007316D02*
X001954Y007316D01*
X001954Y007157D02*
X002674Y007157D01*
X002674Y006999D02*
X001954Y006999D01*
X001954Y006840D02*
X002674Y006840D01*
X002674Y006682D02*
X001954Y006682D01*
X001954Y006523D02*
X002674Y006523D01*
X002674Y006365D02*
X001954Y006365D01*
X001954Y006206D02*
X002674Y006206D01*
X002674Y006048D02*
X001954Y006048D01*
X001954Y005889D02*
X002674Y005889D01*
X002674Y005730D02*
X001954Y005730D01*
X001954Y005572D02*
X002674Y005572D01*
X002674Y005413D02*
X001954Y005413D01*
X001954Y005255D02*
X002674Y005255D01*
X002674Y005096D02*
X001954Y005096D01*
X001954Y004938D02*
X002674Y004938D01*
X002674Y004779D02*
X001954Y004779D01*
X001954Y004621D02*
X002674Y004621D01*
X002674Y004462D02*
X001954Y004462D01*
X001954Y004304D02*
X002674Y004304D01*
X002674Y004145D02*
X001954Y004145D01*
X001954Y003986D02*
X002674Y003986D01*
X002674Y003828D02*
X001954Y003828D01*
X001954Y003669D02*
X002675Y003669D01*
X002770Y003511D02*
X001954Y003511D01*
X001954Y003352D02*
X002929Y003352D01*
X003087Y003194D02*
X001954Y003194D01*
X001954Y003035D02*
X003246Y003035D01*
X003404Y002877D02*
X001954Y002877D01*
X001954Y002718D02*
X003563Y002718D01*
X003721Y002560D02*
X001954Y002560D01*
X004714Y001767D02*
X007105Y001767D01*
X007074Y001925D02*
X005490Y001925D01*
X005651Y002084D02*
X007101Y002084D01*
X007203Y002242D02*
X005809Y002242D01*
X005968Y002401D02*
X007202Y002401D01*
X007044Y002560D02*
X006116Y002560D01*
X006154Y002718D02*
X006885Y002718D01*
X006726Y002877D02*
X006262Y002877D01*
X006342Y003035D02*
X006568Y003035D01*
X006409Y003194D02*
X006364Y003194D01*
X007734Y004145D02*
X011474Y004145D01*
X011474Y003986D02*
X007893Y003986D01*
X008099Y003828D02*
X011449Y003828D01*
X011291Y003669D02*
X008257Y003669D01*
X008284Y003511D02*
X011264Y003511D01*
X011264Y003352D02*
X008284Y003352D01*
X008257Y003194D02*
X011290Y003194D01*
X011449Y003035D02*
X008099Y003035D01*
X008447Y002084D02*
X011101Y002084D01*
X011074Y001925D02*
X008474Y001925D01*
X008443Y001767D02*
X011106Y001767D01*
X011215Y001608D02*
X008333Y001608D01*
X007774Y001608D02*
X007774Y001608D01*
X007774Y001767D02*
X007774Y001767D01*
X007774Y001925D02*
X007774Y001925D01*
X007215Y001608D02*
X004779Y001608D01*
X007576Y004304D02*
X011474Y004304D01*
X011474Y004462D02*
X010973Y004462D01*
X011184Y004621D02*
X011474Y004621D01*
X011474Y004779D02*
X011263Y004779D01*
X011284Y004938D02*
X011474Y004938D01*
X011474Y005096D02*
X011258Y005096D01*
X011172Y005255D02*
X011474Y005255D01*
X011474Y005413D02*
X010943Y005413D01*
X010574Y005572D02*
X011474Y005572D01*
X011474Y005730D02*
X010574Y005730D01*
X010574Y005889D02*
X011474Y005889D01*
X011474Y006048D02*
X010574Y006048D01*
X010574Y006206D02*
X011474Y006206D01*
X010958Y006365D02*
X010589Y006365D01*
X010689Y006523D02*
X010859Y006523D01*
X010834Y006682D02*
X010714Y006682D01*
X010714Y006840D02*
X010834Y006840D01*
X010834Y006999D02*
X010714Y006999D01*
X010714Y007157D02*
X010834Y007157D01*
X010849Y007316D02*
X010699Y007316D01*
X010613Y007474D02*
X010935Y007474D01*
X011613Y007474D02*
X011935Y007474D01*
X011849Y007316D02*
X011699Y007316D01*
X011714Y007157D02*
X011834Y007157D01*
X011834Y006999D02*
X011714Y006999D01*
X011789Y006840D02*
X011834Y006840D01*
X009607Y005413D02*
X009574Y005413D01*
X009287Y004779D02*
X009263Y004779D01*
X009184Y004621D02*
X009369Y004621D01*
X007523Y006298D02*
X007361Y006231D01*
X007186Y006231D01*
X007025Y006298D01*
X006901Y006422D01*
X006834Y006584D01*
X006834Y007279D01*
X006901Y007441D01*
X007025Y007564D01*
X007186Y007631D01*
X007361Y007631D01*
X007523Y007564D01*
X007647Y007441D01*
X007714Y007279D01*
X007714Y006584D01*
X007647Y006422D01*
X007523Y006298D01*
X007589Y006365D02*
X007958Y006365D01*
X007859Y006523D02*
X007689Y006523D01*
X007714Y006682D02*
X007834Y006682D01*
X007834Y006840D02*
X007714Y006840D01*
X007714Y006999D02*
X007834Y006999D01*
X007834Y007157D02*
X007714Y007157D01*
X007699Y007316D02*
X007849Y007316D01*
X007935Y007474D02*
X007613Y007474D01*
X006935Y007474D02*
X006613Y007474D01*
X006699Y007316D02*
X006849Y007316D01*
X006834Y007157D02*
X006714Y007157D01*
X006714Y006999D02*
X006834Y006999D01*
X006834Y006840D02*
X006714Y006840D01*
X006714Y006682D02*
X006834Y006682D01*
X006859Y006523D02*
X006689Y006523D01*
X006589Y006365D02*
X006958Y006365D01*
X005958Y006365D02*
X004772Y006365D01*
X004706Y006523D02*
X005859Y006523D01*
X004552Y006682D02*
X004547Y006682D01*
X004394Y006840D02*
X004268Y006840D01*
X004264Y006999D02*
X003274Y006999D01*
X003274Y007157D02*
X004264Y007157D01*
X004264Y007316D02*
X003274Y007316D01*
X003274Y007474D02*
X004346Y007474D01*
X003739Y006840D02*
X003274Y006840D01*
X003274Y006682D02*
X003460Y006682D01*
X003302Y006523D02*
X003274Y006523D01*
X002624Y009221D02*
X002624Y009681D01*
X002624Y009681D01*
X002624Y009221D01*
X002624Y009377D02*
X002624Y009377D01*
X002624Y009535D02*
X002624Y009535D01*
X002624Y009694D02*
X002624Y009694D01*
X002624Y009853D02*
X002624Y009853D01*
X002624Y010011D02*
X002624Y010011D01*
X002945Y010011D02*
X003103Y010011D01*
X003745Y010011D02*
X004474Y010011D01*
X004474Y010170D02*
X001954Y010170D01*
X001954Y010328D02*
X004474Y010328D01*
X004474Y010487D02*
X001954Y010487D01*
X001954Y010645D02*
X004474Y010645D01*
X004430Y010804D02*
X001954Y010804D01*
X001954Y010962D02*
X004272Y010962D01*
X004264Y011121D02*
X001954Y011121D01*
X001954Y011279D02*
X004264Y011279D01*
X004309Y011438D02*
X001954Y011438D01*
X001954Y011597D02*
X004468Y011597D01*
X005080Y011597D02*
X005468Y011597D01*
X005479Y011755D02*
X001954Y011755D01*
X001954Y011914D02*
X005320Y011914D01*
X005264Y012072D02*
X001954Y012072D01*
X001954Y012231D02*
X005264Y012231D01*
X005264Y012389D02*
X001954Y012389D01*
X001954Y012548D02*
X005419Y012548D01*
X005502Y012706D02*
X005575Y012706D01*
X005046Y012706D02*
X004502Y012706D01*
X004683Y012865D02*
X004865Y012865D01*
X004799Y013023D02*
X004749Y013023D01*
X004754Y013182D02*
X004794Y013182D01*
X004794Y013341D02*
X004754Y013341D01*
X004754Y013499D02*
X004794Y013499D01*
X004794Y013658D02*
X004754Y013658D01*
X004754Y013816D02*
X004794Y013816D01*
X004855Y013975D02*
X004693Y013975D01*
X003974Y014133D02*
X003537Y014133D01*
X003525Y014142D02*
X003458Y014176D01*
X003386Y014200D01*
X003312Y014211D01*
X003294Y014211D01*
X003294Y013452D01*
X003254Y013452D01*
X003254Y014211D01*
X003236Y014211D01*
X003161Y014200D01*
X003090Y014176D01*
X003022Y014142D01*
X002961Y014098D01*
X002908Y014044D01*
X002863Y013983D01*
X002829Y013916D01*
X002806Y013844D01*
X002794Y013769D01*
X002794Y013451D01*
X003254Y013451D01*
X003254Y013411D01*
X003294Y013411D01*
X003294Y012651D01*
X003312Y012651D01*
X003386Y012663D01*
X003458Y012687D01*
X003525Y012721D01*
X003587Y012765D01*
X003640Y012819D01*
X003684Y012880D01*
X003719Y012947D01*
X003742Y013019D01*
X003754Y013094D01*
X003754Y013411D01*
X003294Y013411D01*
X003294Y013451D01*
X003754Y013451D01*
X003754Y013769D01*
X003742Y013844D01*
X003719Y013916D01*
X003684Y013983D01*
X003640Y014044D01*
X003587Y014098D01*
X003525Y014142D01*
X003294Y014133D02*
X003254Y014133D01*
X003254Y013975D02*
X003294Y013975D01*
X003294Y013816D02*
X003254Y013816D01*
X003254Y013658D02*
X003294Y013658D01*
X003294Y013499D02*
X003254Y013499D01*
X003254Y013411D02*
X002794Y013411D01*
X002794Y013094D01*
X002806Y013019D01*
X002829Y012947D01*
X002863Y012880D01*
X002908Y012819D01*
X002961Y012765D01*
X003022Y012721D01*
X003090Y012687D01*
X003161Y012663D01*
X003236Y012651D01*
X003254Y012651D01*
X003254Y013411D01*
X003254Y013341D02*
X003294Y013341D01*
X003294Y013182D02*
X003254Y013182D01*
X003254Y013023D02*
X003294Y013023D01*
X003294Y012865D02*
X003254Y012865D01*
X003254Y012706D02*
X003294Y012706D01*
X003497Y012706D02*
X004046Y012706D01*
X003865Y012865D02*
X003673Y012865D01*
X003743Y013023D02*
X003799Y013023D01*
X003794Y013182D02*
X003754Y013182D01*
X003754Y013341D02*
X003794Y013341D01*
X003794Y013499D02*
X003754Y013499D01*
X003754Y013658D02*
X003794Y013658D01*
X003794Y013816D02*
X003746Y013816D01*
X003689Y013975D02*
X003855Y013975D01*
X003995Y014292D02*
X001954Y014292D01*
X001954Y014450D02*
X004119Y014450D01*
X003010Y014133D02*
X001954Y014133D01*
X001954Y013975D02*
X002859Y013975D01*
X002801Y013816D02*
X001954Y013816D01*
X001954Y013658D02*
X002794Y013658D01*
X002794Y013499D02*
X001954Y013499D01*
X001954Y013341D02*
X002794Y013341D01*
X002794Y013182D02*
X001954Y013182D01*
X001954Y013023D02*
X002805Y013023D01*
X002874Y012865D02*
X001954Y012865D01*
X001954Y012706D02*
X003051Y012706D01*
X005238Y011438D02*
X005309Y011438D01*
X006069Y011755D02*
X006526Y011755D01*
X006684Y011597D02*
X006080Y011597D01*
X006238Y011438D02*
X006843Y011438D01*
X007002Y011279D02*
X006284Y011279D01*
X006284Y011121D02*
X007160Y011121D01*
X007319Y010962D02*
X006276Y010962D01*
X006117Y010804D02*
X007477Y010804D01*
X007361Y010631D02*
X007186Y010631D01*
X007025Y010564D01*
X006901Y010441D01*
X006834Y010279D01*
X006834Y009584D01*
X006901Y009422D01*
X007025Y009298D01*
X007186Y009231D01*
X007361Y009231D01*
X007523Y009298D01*
X007647Y009422D01*
X007714Y009584D01*
X007714Y010279D01*
X007647Y010441D01*
X007523Y010564D01*
X007361Y010631D01*
X006947Y010487D02*
X006601Y010487D01*
X006693Y010328D02*
X006854Y010328D01*
X006834Y010170D02*
X006714Y010170D01*
X006714Y010011D02*
X006834Y010011D01*
X006834Y009853D02*
X006714Y009853D01*
X006714Y009694D02*
X006834Y009694D01*
X006854Y009535D02*
X006694Y009535D01*
X006602Y009377D02*
X006946Y009377D01*
X007602Y009377D02*
X007946Y009377D01*
X007854Y009535D02*
X007694Y009535D01*
X007714Y009694D02*
X007834Y009694D01*
X007834Y009853D02*
X007714Y009853D01*
X007714Y010011D02*
X007834Y010011D01*
X007834Y010170D02*
X007714Y010170D01*
X007693Y010328D02*
X007854Y010328D01*
X007794Y010487D02*
X007601Y010487D01*
X007636Y010645D02*
X006074Y010645D01*
X006025Y009298D02*
X006025Y009298D01*
X008167Y010962D02*
X008319Y010962D01*
X008326Y010804D02*
X008477Y010804D01*
X008484Y010645D02*
X008636Y010645D01*
X008601Y010487D02*
X008794Y010487D01*
X008854Y010328D02*
X008693Y010328D01*
X008714Y010170D02*
X008834Y010170D01*
X008834Y010011D02*
X008714Y010011D01*
X008714Y009853D02*
X008834Y009853D01*
X008834Y009694D02*
X008714Y009694D01*
X008694Y009535D02*
X008854Y009535D01*
X008946Y009377D02*
X008602Y009377D01*
X009602Y009377D02*
X009946Y009377D01*
X009854Y009535D02*
X009694Y009535D01*
X009714Y009694D02*
X009834Y009694D01*
X009834Y009853D02*
X009714Y009853D01*
X009714Y010011D02*
X009834Y010011D01*
X009834Y010170D02*
X009714Y010170D01*
X009693Y010328D02*
X009854Y010328D01*
X009794Y010487D02*
X009601Y010487D01*
X009636Y010645D02*
X009484Y010645D01*
X009477Y010804D02*
X009326Y010804D01*
X009882Y011279D02*
X010002Y011279D01*
X010009Y011121D02*
X010160Y011121D01*
X010167Y010962D02*
X010319Y010962D01*
X010326Y010804D02*
X010477Y010804D01*
X010484Y010645D02*
X010636Y010645D01*
X010666Y010487D02*
X010601Y010487D01*
X010693Y010328D02*
X010766Y010328D01*
X010714Y010170D02*
X010834Y010170D01*
X010834Y010011D02*
X010714Y010011D01*
X010714Y009853D02*
X010834Y009853D01*
X010834Y009694D02*
X010714Y009694D01*
X010694Y009535D02*
X010854Y009535D01*
X010946Y009377D02*
X010602Y009377D01*
X011602Y009377D02*
X011946Y009377D01*
X011854Y009535D02*
X011694Y009535D01*
X011714Y009694D02*
X011834Y009694D01*
X011834Y009853D02*
X011714Y009853D01*
X011714Y010011D02*
X011834Y010011D01*
X011834Y010170D02*
X011714Y010170D01*
X011693Y010328D02*
X011854Y010328D01*
X011947Y010487D02*
X011601Y010487D01*
X011484Y010645D02*
X011974Y010645D01*
X011974Y010804D02*
X011382Y010804D01*
X011354Y010962D02*
X011974Y010962D01*
X011974Y011121D02*
X011009Y011121D01*
X010850Y011279D02*
X011974Y011279D01*
X011974Y011438D02*
X010691Y011438D01*
X010533Y011597D02*
X011974Y011597D01*
X011974Y011755D02*
X010374Y011755D01*
X010216Y011914D02*
X011974Y011914D01*
X011974Y012072D02*
X010057Y012072D01*
X009899Y012231D02*
X011974Y012231D01*
X011974Y012389D02*
X009740Y012389D01*
X009582Y012548D02*
X011997Y012548D01*
X012046Y012706D02*
X011502Y012706D01*
X011683Y012865D02*
X011865Y012865D01*
X011799Y013023D02*
X011749Y013023D01*
X011754Y013182D02*
X011794Y013182D01*
X011794Y013341D02*
X011754Y013341D01*
X011754Y013499D02*
X011794Y013499D01*
X011794Y013658D02*
X011754Y013658D01*
X011754Y013816D02*
X011794Y013816D01*
X011855Y013975D02*
X011693Y013975D01*
X010855Y013975D02*
X010693Y013975D01*
X010754Y013816D02*
X010794Y013816D01*
X010794Y013658D02*
X010754Y013658D01*
X010754Y013499D02*
X010794Y013499D01*
X010794Y013341D02*
X010754Y013341D01*
X010754Y013182D02*
X010794Y013182D01*
X010799Y013023D02*
X010749Y013023D01*
X010683Y012865D02*
X010865Y012865D01*
X011046Y012706D02*
X010502Y012706D01*
X010046Y012706D02*
X009502Y012706D01*
X009683Y012865D02*
X009865Y012865D01*
X009799Y013023D02*
X009749Y013023D01*
X009754Y013182D02*
X009794Y013182D01*
X009794Y013341D02*
X009754Y013341D01*
X009754Y013499D02*
X009794Y013499D01*
X009794Y013658D02*
X009754Y013658D01*
X009754Y013816D02*
X009794Y013816D01*
X009855Y013975D02*
X009693Y013975D01*
X008002Y011279D02*
X007850Y011279D01*
X008009Y011121D02*
X008160Y011121D01*
X002303Y010011D02*
X001954Y010011D01*
X001954Y009853D02*
X002164Y009853D01*
X002164Y009694D02*
X001954Y009694D01*
X001954Y009535D02*
X002164Y009535D01*
X002278Y009377D02*
X001954Y009377D01*
X012074Y005096D02*
X012185Y005096D01*
X012264Y004938D02*
X012074Y004938D01*
X012074Y004779D02*
X012264Y004779D01*
X012363Y004621D02*
X012074Y004621D01*
X012074Y004462D02*
X012522Y004462D01*
D23*
X014274Y007931D03*
X013274Y008431D03*
X012274Y008931D03*
X011024Y010681D03*
X009524Y011181D03*
X008024Y011681D03*
X006524Y012181D03*
X015774Y012181D03*
X015774Y011681D03*
X015774Y011181D03*
X015774Y010681D03*
X016274Y008931D03*
X016274Y008431D03*
X016274Y007931D03*
X019524Y001431D03*
M02*
