%
M48
M72
T01C0.0236
T02C0.0240
T03C0.0320
T04C0.0360
T05C0.0400
T06C0.0900
%
T01
X12274Y8931
X13274Y8431
X14274Y7931
X16274Y7931
X16274Y8431
X16274Y8931
X15774Y10681
X15774Y11181
X15774Y11681
X15774Y12181
X11024Y10681
X9524Y11181
X8024Y11681
X6524Y12181
X19524Y1431
T02
X20024Y11181
X20024Y12181
X20024Y13181
T03
X15274Y9931
X14274Y9931
X13274Y9931
X12274Y9931
X11274Y9931
X10274Y9931
X9274Y9931
X8274Y9931
X7274Y9931
X6274Y9931
X5774Y11181
X4774Y11181
X5774Y12181
X3424Y9681
X2624Y9681
X4774Y7181
X6274Y6931
X7274Y6931
X8274Y6931
X9274Y6931
X10274Y6931
X11274Y6931
X12274Y6931
X13274Y6931
X14274Y6931
X15274Y6931
X16774Y4931
X16774Y3431
X17274Y1931
X13274Y1931
X11774Y1931
X11774Y3431
X12774Y3431
X12774Y4931
X10774Y4931
X9774Y4931
X8774Y4931
X7774Y3431
X7774Y1931
T04
X5854Y3189
X5074Y3189
X5074Y4174
X5854Y4174
T05
X6274Y13431
X5274Y13431
X4274Y13431
X3274Y13431
X7274Y13431
X8274Y13431
X9274Y13431
X10274Y13431
X11274Y13431
X12274Y13431
X13274Y13431
X14274Y13431
X15274Y13431
X16274Y13431
X17274Y13431
X18274Y13431
X19524Y9681
X20524Y9681
X20524Y8681
X19524Y8681
X19524Y7681
X20524Y7681
X20524Y6681
X19524Y6681
X19524Y5681
X20524Y5681
X20524Y4681
X19524Y4681
X19524Y3681
X20524Y3681
T06
X4004Y1311
X4004Y6051
M30
